<svg width="407" height="158" viewBox="0 0 407 158" fill="none" xmlns="http://www.w3.org/2000/svg">
<g clip-path="url(#clip0_18_2)">
<path d="M88.1477 9.77825C94.2417 6.68252 100.285 3.6058 106.968 1.76991C131.876 -5.08623 161.392 9.19581 172.112 32.7905C182.768 56.176 176.788 82.0938 159.702 98.788C142.457 115.647 125.617 132.917 108.442 149.845C98.4818 159.658 83.6354 160.645 72.3713 152.643C72.0293 152.396 71.5293 152.257 71.5992 151.668C74.6808 152.187 76.7061 154.751 79.6359 155.682C88.774 158.569 97.0515 156.676 104.842 151.586C105.525 151.143 106.443 150.681 106.013 149.237C103.753 149.826 101.102 151.244 99.8234 147.87C98.545 144.496 96.1528 141.843 94.824 138.507C94.109 136.715 93.7673 134.55 91.9826 133.271C94.4759 129.644 97.8932 126.877 100.994 123.845C103.165 121.724 102.994 120.496 100.931 118.483C93.5583 111.272 86.0528 104.163 79.1615 96.5088C63.4103 78.9602 59.493 58.8602 67.5425 36.5761C68.6375 33.5373 70.0738 30.6316 71.403 27.6688C76.4148 21.1672 81.718 14.9251 88.1477 9.77825ZM153.601 57.4992C153.601 44.8948 146.862 33.5373 135.407 27.8967C123.82 22.1991 112.385 22.9967 101.722 30.3657C85.7111 41.4319 82.8633 64.368 95.925 78.8271C103.133 86.804 111.044 94.1413 118.606 101.795C120.15 103.359 121.365 103.498 123.035 101.795C130.294 94.312 137.793 87.0635 144.969 79.4983C150.747 73.3892 153.513 65.9252 153.601 57.4992Z" fill="url(#paint0_linear_18_2)"/>
<path d="M88.1474 9.7782C81.7177 14.9504 76.4145 21.1735 71.4027 27.6688C68.1752 25.7696 64.5997 25.0162 60.9419 24.5034C42.4064 21.8888 27.4715 36.3482 24.7757 50.567C22.3582 63.3234 26.478 73.7119 35.3564 82.6067C48.5785 95.8379 61.8133 109.058 75.0605 122.269C78.3004 125.51 81.2117 129.055 84.6985 132.081C87.0524 134.12 89.2991 134.613 92.0203 133.271C93.805 134.537 94.1467 136.715 94.8617 138.507C96.1908 141.843 98.6018 144.534 99.8611 147.87C101.12 151.206 103.791 149.826 106.05 149.237C106.481 150.681 105.563 151.136 104.879 151.586C97.0892 156.651 88.8119 158.55 79.6739 155.682C76.7438 154.751 74.7188 152.187 71.6368 151.668L70.599 150.782C69.2146 148.963 67.5508 147.375 65.6691 146.078L65.2008 145.597C64.935 145.306 64.6756 145.015 64.4162 144.717L63.8847 144.198C63.1627 143.038 62.1759 142.066 61.0053 141.362L60.4611 140.792L59.6762 140.051C59.4779 139.862 59.288 139.672 59.1067 139.482L58.4042 138.716C52.2469 133.651 46.9247 127.745 41.3178 122.117C31.7053 112.418 21.2255 103.492 12.638 92.8435C-12.3336 61.8925 1.36722 15.4822 39.0966 3.036C55.506 -2.37676 71.3711 -0.515532 86.3502 8.32845C86.9844 8.76642 87.5852 9.25102 88.1474 9.7782Z" fill="url(#paint1_linear_18_2)"/>
<path d="M219.7 100.2L219.735 82.5565H221.875L238.856 62.4267H255.734L232.92 89.0822H229.434L219.7 100.2ZM206.377 115.462V44.7483H221.081V115.462H206.377ZM239.512 115.462L223.911 92.3622L233.713 81.9694L256.735 115.462H239.512ZM284.718 116.497C279.356 116.497 274.72 115.358 270.808 113.079C266.92 110.777 263.917 107.578 261.8 103.48C259.683 99.3601 258.624 94.5836 258.624 89.1512C258.624 83.6728 259.683 78.8848 261.8 74.7874C263.917 70.6673 266.92 67.4675 270.808 65.1886C274.72 62.887 279.356 61.736 284.718 61.736C290.079 61.736 294.704 62.887 298.593 65.1886C302.504 67.4675 305.52 70.6673 307.637 74.7874C309.751 78.8848 310.811 83.6728 310.811 89.1512C310.811 94.5836 309.751 99.3601 307.637 103.48C305.52 107.578 302.504 110.777 298.593 113.079C294.704 115.358 290.079 116.497 284.718 116.497ZM284.787 105.103C287.226 105.103 289.262 104.412 290.896 103.031C292.53 101.627 293.761 99.7168 294.589 97.2997C295.441 94.8829 295.866 92.1322 295.866 89.0475C295.866 85.9632 295.441 83.2125 294.589 80.7954C293.761 78.3786 292.53 76.468 290.896 75.0636C289.262 73.6596 287.226 72.9577 284.787 72.9577C282.325 72.9577 280.254 73.6596 278.574 75.0636C276.918 76.468 275.663 78.3786 274.812 80.7954C273.984 83.2125 273.569 85.9632 273.569 89.0475C273.569 92.1322 273.984 94.8829 274.812 97.2997C275.663 99.7168 276.918 101.627 278.574 103.031C280.254 104.412 282.325 105.103 284.787 105.103ZM354.369 92.8803V62.4267H369.073V115.462H354.956V105.828H354.403C353.206 108.936 351.217 111.433 348.431 113.321C345.67 115.208 342.299 116.152 338.32 116.152C334.776 116.152 331.659 115.346 328.965 113.735C326.274 112.124 324.169 109.833 322.651 106.864C321.153 103.895 320.394 100.338 320.373 96.1949V62.4267H335.076V93.5709C335.098 96.7014 335.939 99.176 337.594 100.994C339.253 102.813 341.473 103.722 344.255 103.722C346.029 103.722 347.684 103.319 349.227 102.513C350.767 101.685 352.009 100.465 352.954 98.8536C353.92 97.2423 354.391 95.2512 354.369 92.8803ZM389.426 116.359C387.148 116.359 385.195 115.554 383.561 113.942C381.948 112.308 381.143 110.351 381.143 108.073C381.143 105.817 381.948 103.883 383.561 102.272C385.195 100.661 387.148 99.8548 389.426 99.8548C391.637 99.8548 393.569 100.661 395.227 102.272C396.883 103.883 397.712 105.817 397.712 108.073C397.712 109.592 397.32 110.984 396.536 112.25C395.777 113.493 394.778 114.495 393.535 115.254C392.293 115.991 390.923 116.359 389.426 116.359Z" fill="#FA5E5E"/>
</g>
<defs>
<linearGradient id="paint0_linear_18_2" x1="117.481" y1="89.6559" x2="309.951" y2="-26.4927" gradientUnits="userSpaceOnUse">
<stop offset="0.0389381" stop-color="#FA5E5E"/>
<stop offset="1" stop-color="#B4E3B3" stop-opacity="0"/>
</linearGradient>
<linearGradient id="paint1_linear_18_2" x1="50.3119" y1="89.081" x2="235.647" y2="-15.7302" gradientUnits="userSpaceOnUse">
<stop offset="0.0389381" stop-color="#FA5E5E"/>
<stop offset="1" stop-color="#B4E3B3" stop-opacity="0"/>
</linearGradient>
<clipPath id="clip0_18_2">
<rect width="407" height="158" fill="white"/>
</clipPath>
</defs>
</svg>
